<svg xmlns="http://www.w3.org/2000/svg" width="773.053" height="800" viewBox="0 0 773.053 800" xmlns:xlink="http://www.w3.org/1999/xlink" role="img" artist="Katerina Limpitsouni" source="https://undraw.co/"><g transform="translate(-683.539 -100)"><path d="M596.274,441.244H925c5.466,0,9.895-1.115,9.9-2.49V410.877c-.007-1.374-4.435-2.487-9.9-2.49H596.274c-5.466,0-9.895,1.115-9.9,2.49v27.878c.007,1.374,4.435,2.487,9.9,2.49Z" transform="translate(266.189 80.723)" fill="#f1f1f1"/><path d="M595.082,321.539l.364-.268.009-.007a4.448,4.448,0,0,1,6.222.919L675.669,421.8h8.141v-1.911a1.779,1.779,0,0,1,1.779-1.779h4.856a1.779,1.779,0,0,1,1.779,1.779v1.913h2.811v-1.913a1.779,1.779,0,0,1,1.779-1.779h4.856a1.779,1.779,0,0,1,1.779,1.779v1.913h2.8v-1.913a1.779,1.779,0,0,1,1.779-1.779h4.856a1.779,1.779,0,0,1,1.779,1.779v1.913h2.812v-1.913a1.779,1.779,0,0,1,1.779-1.779h4.857a1.779,1.779,0,0,1,1.779,1.779v1.913h2.8v-1.913a1.779,1.779,0,0,1,1.779-1.779h4.856a1.779,1.779,0,0,1,1.779,1.779v1.912h2.811v-1.912a1.779,1.779,0,0,1,1.779-1.779h4.851a1.779,1.779,0,0,1,1.779,1.779v1.913h2.811v-1.913a1.779,1.779,0,0,1,1.779-1.779h4.856a1.779,1.779,0,0,1,1.779,1.779v1.913h2.8v-1.913a1.779,1.779,0,0,1,1.779-1.779h4.856a1.779,1.779,0,0,1,1.779,1.779v1.913h2.811v-1.913a1.779,1.779,0,0,1,1.779-1.779h4.856a1.779,1.779,0,0,1,1.779,1.779v1.913h2.8v-1.913a1.779,1.779,0,0,1,1.779-1.779h4.856a1.779,1.779,0,0,1,1.779,1.779v1.913h3.526a4.448,4.448,0,0,1,4.448,4.448v4.239a4.448,4.448,0,0,1-4.448,4.448H676.4a6.627,6.627,0,0,1-6.488-5.281l-.047.032-75.7-101.924-.007-.009a4.448,4.448,0,0,1,.919-6.222Z" transform="translate(391.309 59.283)" fill="#090814"/><path d="M128.315,741.875H899.7a1.344,1.344,0,0,0,0-2.487H128.315a1.344,1.344,0,0,0,0,2.487Z" transform="translate(556.06 158.125)" fill="#cbcbcb"/><path d="M368.587,0H10.777C4.828,0,.007,1.115,0,2.49V30.367c.007,1.375,4.828,2.49,10.777,2.49h357.81c5.949,0,10.77-1.115,10.777-2.49V2.491C379.357,1.117,374.536,0,368.587,0Z" transform="translate(1043.248 518.149) rotate(90)" fill="#f1f1f1"/><g transform="translate(1112.62 213.972)"><rect width="24.586" height="32.405" transform="translate(57.763 628.766)" fill="#ed9da0"/><path d="M723.229,512.549H670.968a30.14,30.14,0,0,1-12.981-2.957l-9.633-4.63a5.788,5.788,0,0,1,.964-10.792l19.88-5.5L703.2,470.8l.025.126c.632,3.22,1.621,8.086,1.747,8.382,3.487,4,7.07,5.834,10.647,5.473,6.242-.632,10.389-7.847,10.43-7.912l.032-.056.063.007a4.138,4.138,0,0,1,3.213,1.753c1.424,2.151.555,5.451.413,5.953,1.706,1.666,2.47,10.984,2.529,11.737,2.465,2.616,3.639,5.124,3.482,7.463a8.039,8.039,0,0,1-3.374,5.65,14.6,14.6,0,0,1-9.176,3.176Z" transform="translate(-645.077 170.987)" fill="#090814"/><rect width="24.586" height="32.405" transform="translate(220.902 620.855) rotate(-16.22)" fill="#ed9da0"/><path d="M844.867,499.693l-50.183,14.6a30.138,30.138,0,0,1-13.29.787l-10.545-1.756a5.787,5.787,0,0,1-2.083-10.625l17.547-10.834,27.662-26.656.059.114c1.506,2.909,3.82,7.311,4.018,7.56,4.464,2.863,8.416,3.629,11.752,2.275,5.818-2.35,7.785-10.429,7.805-10.51l.016-.063.061-.011a4.139,4.139,0,0,1,3.575.784c1.969,1.666,2.055,5.081,2.059,5.6,2.1,1.125,5.439,9.857,5.707,10.562,3.1,1.82,4.922,3.9,5.427,6.2a8.039,8.039,0,0,1-1.666,6.369,14.594,14.594,0,0,1-7.922,5.613Z" transform="translate(-589.093 168.055)" fill="#090814"/><path d="M789.654,76.468a39.97,39.97,0,1,0-51.948,38.142l7.727,51.065,39.391-32.82a99.239,99.239,0,0,1-13.079-23.061,39.93,39.93,0,0,0,17.9-33.323Z" transform="translate(-615.162 -30.074)" fill="#ed9da0"/><path d="M826.44,247.018l5.771-80.778a53.428,53.428,0,0,0-2.606-20.7L812.5,94.248l-50.365,16.176-21.25,48.618-11.573,21.22a24.807,24.807,0,0,0,4.236,29.416l7.337,7.336-10.228,37.513,1.076-.038-1.443.188S661.91,460.392,664.365,635.343h87.771l5.21-203.083,15.248,210.964,115.664-6.661L826.445,247.018Z" transform="translate(-636.175 -3.342)" fill="#e6e6e6"/><path d="M804.959,131.024s-1.868,14.166-19.16,14.625l-35.078.938s29.654-72.166,17.454-64.036S723.468,56.6,723.468,56.6L713.874,74.59s-22.916-8.3,2.482-28.624c0,0,30.309-23.429,62.484-9.36S804.959,131.024,804.959,131.024Z" transform="translate(-617.634 -32.108)" fill="#090814"/><path d="M676.166,244.73c-.463-9.019,7.985-16.782,18.879-17.347a21.453,21.453,0,0,1,15.705,5.324l.252-.013,64.588-6.689-4.845-64.1c-1.792-12.4,1.689-24.9,13.9-27.7h0a24.079,24.079,0,0,1,29.479,23.578l-.37,80.743a20.743,20.743,0,0,1-20.88,20.658l-81.058-6.057a21.452,21.452,0,0,1-15.072,6.917c-10.9.569-20.111-6.292-20.573-15.3Z" transform="translate(-630.697 14.871)" fill="#ed9da0"/><path d="M736.562,135.682l3.891,73.129,54.057-3.668-9.56-76.06" transform="translate(-602.73 12.789)" fill="#e6e6e6"/></g><g transform="translate(1036.385 100)"><path d="M834.807,229.333h-.43a8.646,8.646,0,0,1,3.86.913h-1.958a7.967,7.967,0,0,0-7.958,7.958v21.083a7.967,7.967,0,0,0,7.958,7.958h1.248a8.655,8.655,0,0,1-3.148.6h.43a8.724,8.724,0,0,0,8.713-8.713V238.046a8.724,8.724,0,0,0-8.713-8.713Z" transform="translate(-692.909 -229.333)" fill="#ff6584"/><path d="M834.807,229.333h-.43a8.646,8.646,0,0,1,3.86.913h-1.958a7.967,7.967,0,0,0-7.958,7.958v21.083a7.967,7.967,0,0,0,7.958,7.958h1.248a8.655,8.655,0,0,1-3.148.6h.43a8.724,8.724,0,0,0,8.713-8.713V238.046a8.724,8.724,0,0,0-8.713-8.713Z" transform="translate(-692.909 -229.333)" opacity="0.21"/><path d="M832.091,267.323a7.967,7.967,0,0,1-7.958-7.958V238.282a7.967,7.967,0,0,1,7.958-7.958h1.958a8.647,8.647,0,0,0-3.86-.913H809.108a8.724,8.724,0,0,0-8.713,8.713v21.083a8.723,8.723,0,0,0,8.713,8.713h21.083a8.654,8.654,0,0,0,3.148-.6Z" transform="translate(-688.64 -229.345)" fill="#6c63ff"/><path d="M832.091,267.323a7.967,7.967,0,0,1-7.958-7.958V238.282a7.967,7.967,0,0,1,7.958-7.958h1.958a8.647,8.647,0,0,0-3.86-.913H809.108a8.724,8.724,0,0,0-8.713,8.713v21.083a8.723,8.723,0,0,0,8.713,8.713h21.083a8.654,8.654,0,0,0,3.148-.6Z" transform="translate(-688.64 -229.345)" fill="#ff6584"/><path d="M900.768,229.333h-.43a8.646,8.646,0,0,1,3.859.913h-1.96a7.967,7.967,0,0,0-7.959,7.958v21.083a7.967,7.967,0,0,0,7.958,7.958h1.251a8.653,8.653,0,0,1-3.148.6h.43a8.724,8.724,0,0,0,8.713-8.713V238.046a8.724,8.724,0,0,0-8.713-8.713Z" transform="translate(-814.748 -229.333)" fill="#3f3d56"/><path d="M900.768,229.333h-.43a8.646,8.646,0,0,1,3.859.913h-1.96a7.967,7.967,0,0,0-7.959,7.958v21.083a7.967,7.967,0,0,0,7.958,7.958h1.251a8.653,8.653,0,0,1-3.148.6h.43a8.724,8.724,0,0,0,8.713-8.713V238.046a8.724,8.724,0,0,0-8.713-8.713Z" transform="translate(-814.748 -229.333)" opacity="0.21"/><path d="M834.807,229.333h-.43a8.646,8.646,0,0,1,3.86.913h-1.958a7.967,7.967,0,0,0-7.958,7.958v21.083a7.967,7.967,0,0,0,7.958,7.958h1.248a8.655,8.655,0,0,1-3.148.6h.43a8.724,8.724,0,0,0,8.713-8.713V238.046a8.724,8.724,0,0,0-8.713-8.713Z" transform="translate(-804.665 -229.333)" fill="#6c63ff"/><path d="M834.807,229.333h-.43a8.646,8.646,0,0,1,3.86.913h-1.958a7.967,7.967,0,0,0-7.958,7.958v21.083a7.967,7.967,0,0,0,7.958,7.958h1.248a8.655,8.655,0,0,1-3.148.6h.43a8.724,8.724,0,0,0,8.713-8.713V238.046a8.724,8.724,0,0,0-8.713-8.713Z" transform="translate(-804.665 -229.333)" opacity="0.21"/><path d="M832.091,267.323a7.967,7.967,0,0,1-7.958-7.958V238.282a7.967,7.967,0,0,1,7.958-7.958h1.958a8.647,8.647,0,0,0-3.86-.913H809.108a8.724,8.724,0,0,0-8.713,8.713v21.083a8.723,8.723,0,0,0,8.713,8.713h21.083a8.654,8.654,0,0,0,3.148-.6Z" transform="translate(-800.395 -229.345)" fill="#6c63ff"/><path d="M898.053,267.323a7.967,7.967,0,0,1-7.959-7.958V238.282a7.967,7.967,0,0,1,7.959-7.958h1.958a8.645,8.645,0,0,0-3.86-.912H875.07a8.724,8.724,0,0,0-8.714,8.713v21.083a8.723,8.723,0,0,0,8.714,8.713h21.083a8.654,8.654,0,0,0,3.148-.6Z" transform="translate(-810.48 -229.345)" fill="#3f3d56"/><path d="M897.383,284.231,890,273.169l-5.4-8.087a3,3,0,0,0-5.368.777l-2.273,7.309-4.576,14.686a3.009,3.009,0,0,0,4.455,3.451l1.624-1a2.254,2.254,0,0,1,3.428,1.714l1.488,16.235a3.014,3.014,0,0,0,2.99,2.734c.092,0,.184-.007.276-.015l2.281-.2a3,3,0,0,0,2.718-3.27l-1.533-16.763a2.251,2.251,0,0,1,3.187-2.251l.333.151a3,3,0,0,0,3.753-4.4Z" transform="translate(-811.38 -234.593)" fill="#ccc"/><path d="M832.091,267.323a7.967,7.967,0,0,1-7.958-7.958V238.282a7.967,7.967,0,0,1,7.958-7.958h1.958a8.647,8.647,0,0,0-3.86-.913H809.108a8.724,8.724,0,0,0-8.713,8.713v21.083a8.723,8.723,0,0,0,8.713,8.713h21.083a8.654,8.654,0,0,0,3.148-.6Z" transform="translate(-800.395 -229.345)" fill="#6c63ff"/></g><g transform="translate(874.262 138.196)"><path d="M421.634,284.039v1.9a9.844,9.844,0,0,0-1.906-.186h-9.781v20.99a11.726,11.726,0,0,1-11.714,11.714H383.785v3.233a9.792,9.792,0,0,0,.757,3.775h-2a11.511,11.511,0,0,1-.627-3.776v-3.233h-7.944v-1.869h7.944V295.6a11.726,11.726,0,0,1,11.714-11.714h14.444V280.61h1.869v3.271h9.781a11.671,11.671,0,0,1,1.906.159Z" transform="translate(-360.426 -268.927)" fill="#6c63ff"/><path d="M398.858,269.467H372.766a11.726,11.726,0,0,0-11.714,11.714v26.092a11.726,11.726,0,0,0,11.714,11.714h26.092a11.726,11.726,0,0,0,11.714-11.714V281.149A11.725,11.725,0,0,0,398.858,269.467Zm9.85,37.811a9.863,9.863,0,0,1-9.85,9.85H372.766a9.863,9.863,0,0,1-9.85-9.85V281.187a9.864,9.864,0,0,1,9.85-9.85h26.092a9.862,9.862,0,0,1,9.85,9.813Z" transform="translate(-361.052 -269.467)" fill="#3f3d56"/><path d="M381.55,316.438v1.869h1.869v-1.869Zm0,0v1.869h1.869v-1.869Zm39.718-32.55a11.667,11.667,0,0,0-1.906-.159H393.269a11.726,11.726,0,0,0-11.714,11.714v26.092a11.508,11.508,0,0,0,.627,3.776,11.723,11.723,0,0,0,11.093,7.944h26.091a11.726,11.726,0,0,0,11.714-11.714V295.449a11.715,11.715,0,0,0-9.814-11.561Zm7.944,37.653a9.863,9.863,0,0,1-9.85,9.85H393.269a9.864,9.864,0,0,1-9.85-9.85V295.449a9.863,9.863,0,0,1,9.85-9.85h26.1a9.854,9.854,0,0,1,9.85,9.85Zm-47.661-5.1v1.869h1.869v-1.869Z" transform="translate(-360.06 -268.775)" fill="#3f3d56"/></g><g transform="translate(731.735 235.007)"><ellipse cx="24.753" cy="24.753" rx="24.753" ry="24.753" transform="translate(0 19.729)" fill="#3f3d56" opacity="0.74"/><ellipse cx="24.753" cy="24.753" rx="24.753" ry="24.753" transform="translate(24.753 19.729)" fill="#ff6584" opacity="0.74"/><ellipse cx="24.753" cy="24.753" rx="24.753" ry="24.753" transform="translate(12.586 0)" fill="#6c63ff" opacity="0.74"/><rect width="66.646" height="1.442" transform="translate(38.485 37.637) rotate(-17.441)" fill="#3f3d56"/><ellipse cx="2.885" cy="2.885" rx="2.885" ry="2.885" transform="translate(99.588 15.233)" fill="#3f3d56"/></g><g transform="translate(776.112 807.203)"><g transform="translate(14.329)"><path d="M532.06,773.792s16.659-22.908,33.78-20.819C565.84,752.982,547.563,772.405,532.06,773.792Z" transform="translate(-505.497 -743.888)" fill="#6c63ff"/><path d="M502.132,779.883s-19.326-20.7-14.036-37.113C488.122,742.762,503.741,764.4,502.132,779.883Z" transform="translate(-487.179 -742.77)" fill="#6c63ff"/><path d="M9.334,30.575S-3.61,12.084.988,0C1.012-.006,10.733,19.172,9.334,30.575Z" transform="matrix(0.985, 0.174, -0.174, 0.985, 19.242, 6.392)" fill="#e6e6e6"/></g><path d="M545.426,779.86l-2.756,44.216-.477,7.52a5.974,5.974,0,0,1-5.965,5.6H482.951a5.974,5.974,0,0,1-5.965-5.6l-.65-10.374L473.75,779.86Z" transform="translate(-471.359 -746.889)" fill="#f2f2f2"/><path d="M398.5,733.255H469.13l.524-8.365H397.98Z" transform="translate(-395.589 -691.325)" opacity="0.1"/><rect width="76.45" height="14.935" rx="4.5" transform="translate(0 26.401)" fill="#6c63ff"/><path d="M542.985,828.492l-.477,7.52a5.974,5.974,0,0,1-5.965,5.6H483.274a5.974,5.974,0,0,1-5.965-5.6l-.649-10.374c5.734-4.578,14.686-8.32,27.273-4.329C521.513,826.882,532.317,828.758,542.985,828.492Z" transform="translate(-471.682 -751.304)" fill="#d6d6e3"/></g></g></svg>